M48
; DRILL file KiCad 10.0.4 date 2026-07-13T12:43:43
; FORMAT={-:-/ absolute / metric / decimal}
; #@! TF.CreationDate,2026-07-13T12:43:43-04:00
; #@! TF.GenerationSoftware,Kicad,Pcbnew,10.0.4
; #@! TF.FileFunction,Plated,1,2,PTH
FMAT,2
METRIC
; #@! TA.AperFunction,Plated,PTH,ViaDrill
T1C0.300
; #@! TA.AperFunction,Plated,PTH,ComponentDrill
T2C0.500
%
G90
G05
T1
X85.0Y-71.0
X87.539Y-60.388
X87.924Y-70.16
X91.0Y-56.5
X91.0Y-62.0
X91.0Y-71.5
X92.0Y-71.5
X94.616Y-56.731
X95.0Y-62.0
X95.034Y-59.08
X95.846Y-54.003
X98.195Y-62.0
X98.236Y-60.5
X98.269Y-55.36
X98.712Y-59.716
X99.352Y-58.858
X99.772Y-57.772
X100.134Y-55.036
X100.283Y-61.228
X100.951Y-61.97
X102.234Y-54.736
X102.264Y-55.983
X102.698Y-52.849
T2
X83.0Y-57.5
X83.0Y-59.5
X93.005Y-68.441
X93.019Y-70.494
X95.0Y-68.441
X95.019Y-70.494
X97.006Y-68.442
X97.018Y-70.441
X99.015Y-70.412
X101.009Y-70.396
X102.974Y-56.977
X103.0Y-59.0
X103.0Y-70.368
X104.975Y-56.977
X104.99Y-66.341
X105.0Y-59.0
X105.0Y-61.0
X105.0Y-68.341
X105.0Y-70.355
M30
