G04 #@! TF.GenerationSoftware,KiCad,Pcbnew,10.0.4*
G04 #@! TF.CreationDate,2026-07-13T12:43:43-04:00*
G04 #@! TF.ProjectId,smartsole-pcb,736d6172-7473-46f6-9c65-2d7063622e6b,rev?*
G04 #@! TF.SameCoordinates,Original*
G04 #@! TF.FileFunction,Soldermask,Top*
G04 #@! TF.FilePolarity,Negative*
%FSLAX46Y46*%
G04 Gerber Fmt 4.6, Leading zero omitted, Abs format (unit mm)*
G04 Created by KiCad (PCBNEW 10.0.4) date 2026-07-13 12:43:43*
%MOMM*%
%LPD*%
G01*
G04 APERTURE LIST*
G04 Aperture macros list*
%AMFreePoly0*
4,1,15,0.147496,0.448029,0.162141,0.412674,0.162141,-0.412318,0.147496,-0.447673,0.112141,-0.462318,-0.111887,-0.462318,-0.147242,-0.447673,-0.161887,-0.412324,-0.161938,0.000096,-0.160190,0.013206,-0.048150,0.425778,-0.024752,0.456059,0.000102,0.462674,0.112141,0.462674,0.147496,0.448029,0.147496,0.448029,$1*%
%AMFreePoly1*
4,1,15,0.035355,0.447953,0.048254,0.425695,0.160243,0.013097,0.161989,-0.000009,0.161912,-0.412403,0.147261,-0.447756,0.111912,-0.462394,-0.112090,-0.462394,-0.147445,-0.447749,-0.162090,-0.412394,-0.162090,0.412598,-0.147445,0.447953,-0.112090,0.462598,0.000000,0.462598,0.035355,0.447953,0.035355,0.447953,$1*%
%AMFreePoly2*
4,1,15,0.447673,0.147496,0.462318,0.112141,0.462318,-0.111912,0.447673,-0.147267,0.412321,-0.161912,-0.000073,-0.161938,-0.013179,-0.160191,-0.425777,-0.048151,-0.456059,-0.024753,-0.462674,0.000102,-0.462674,0.112141,-0.448029,0.147496,-0.412674,0.162141,0.412318,0.162141,0.447673,0.147496,0.447673,0.147496,$1*%
%AMFreePoly3*
4,1,15,0.412403,0.161912,0.447756,0.147261,0.462394,0.111912,0.462394,-0.112090,0.447749,-0.147445,0.412394,-0.162090,-0.412598,-0.162090,-0.447953,-0.147445,-0.462598,-0.112090,-0.462598,0.000000,-0.447953,0.035355,-0.425695,0.048254,-0.013097,0.160243,0.000009,0.161989,0.412403,0.161912,0.412403,0.161912,$1*%
%AMFreePoly4*
4,1,15,0.147267,0.447749,0.161912,0.412400,0.161963,0.000006,0.160218,-0.013094,0.048255,-0.425692,0.024862,-0.455979,0.000000,-0.462598,-0.112090,-0.462598,-0.147445,-0.447953,-0.162090,-0.412598,-0.162090,0.412394,-0.147445,0.447749,-0.112090,0.462394,0.111912,0.462394,0.147267,0.447749,0.147267,0.447749,$1*%
%AMFreePoly5*
4,1,15,0.147318,0.447749,0.161963,0.412394,0.161963,-0.412598,0.147318,-0.447953,0.111963,-0.462598,-0.000127,-0.462598,-0.035482,-0.447953,-0.048381,-0.425695,-0.160370,-0.013072,-0.162116,0.000034,-0.162039,0.412403,-0.147388,0.447756,-0.112039,0.462394,0.111963,0.462394,0.147318,0.447749,0.147318,0.447749,$1*%
%AMFreePoly6*
4,1,15,0.013120,0.160167,0.425693,0.048204,0.455979,0.024810,0.462598,-0.000051,0.462598,-0.112141,0.447953,-0.147496,0.412598,-0.162141,-0.412394,-0.162141,-0.447749,-0.147496,-0.462394,-0.112141,-0.462394,0.111862,-0.447749,0.147217,-0.412400,0.161862,0.000019,0.161912,0.013120,0.160167,0.013120,0.160167,$1*%
%AMFreePoly7*
4,1,15,0.447876,0.147369,0.462521,0.112014,0.462521,-0.000076,0.447876,-0.035431,0.425624,-0.048329,0.013027,-0.160369,-0.000104,-0.162116,-0.412499,-0.161887,-0.447846,-0.147223,-0.462471,-0.111887,-0.462471,0.112014,-0.447826,0.147369,-0.412471,0.162014,0.412521,0.162014,0.447876,0.147369,0.447876,0.147369,$1*%
G04 Aperture macros list end*
%ADD10R,1.377000X1.133000*%
%ADD11R,1.000000X1.000000*%
%ADD12R,1.410000X1.350000*%
%ADD13R,0.800000X0.900000*%
%ADD14R,1.133000X1.377000*%
%ADD15R,0.864000X0.806000*%
%ADD16R,0.600000X0.270000*%
%ADD17R,0.270000X0.600000*%
%ADD18R,0.200000X0.500000*%
%ADD19R,1.500000X0.900000*%
%ADD20FreePoly0,270.000000*%
%ADD21R,0.825000X0.200000*%
%ADD22FreePoly1,270.000000*%
%ADD23FreePoly2,270.000000*%
%ADD24R,0.200000X0.825000*%
%ADD25FreePoly3,270.000000*%
%ADD26FreePoly4,270.000000*%
%ADD27FreePoly5,270.000000*%
%ADD28FreePoly6,270.000000*%
%ADD29FreePoly7,270.000000*%
%ADD30R,1.150000X0.700000*%
%ADD31R,0.700000X1.150000*%
%ADD32R,0.700000X0.700000*%
%ADD33R,1.350000X1.410000*%
%ADD34R,0.900000X0.800000*%
G04 APERTURE END LIST*
D10*
G04 #@! TO.C,R4*
X101000000Y-65500000D03*
X101000000Y-67500000D03*
G04 #@! TD*
D11*
G04 #@! TO.C,ELE10*
X104974681Y-56976837D03*
G04 #@! TD*
G04 #@! TO.C,VCC1*
X83000000Y-57500000D03*
G04 #@! TD*
D12*
G04 #@! TO.C,C4*
X87000000Y-65950000D03*
X85000000Y-65950000D03*
G04 #@! TD*
D11*
G04 #@! TO.C,ELE6*
X104990480Y-66340539D03*
G04 #@! TD*
G04 #@! TO.C,GND2*
X83000000Y-59500000D03*
G04 #@! TD*
D12*
G04 #@! TO.C,C5*
X87000000Y-64000000D03*
X85000000Y-64000000D03*
G04 #@! TD*
D11*
G04 #@! TO.C,+3.3V1*
X93019050Y-70494460D03*
G04 #@! TD*
D13*
G04 #@! TO.C,C1*
X86639452Y-60517949D03*
X85239452Y-60517949D03*
G04 #@! TD*
D14*
G04 #@! TO.C,R2*
X87000000Y-70000000D03*
X85000000Y-70000000D03*
G04 #@! TD*
D11*
G04 #@! TO.C,ELE8*
X105000000Y-59000000D03*
G04 #@! TD*
D15*
G04 #@! TO.C,R1*
X85136174Y-55523233D03*
X85136174Y-54023233D03*
G04 #@! TD*
D10*
G04 #@! TO.C,R5*
X86874057Y-55000000D03*
X86874057Y-53000000D03*
G04 #@! TD*
D11*
G04 #@! TO.C,ELE4*
X105000000Y-70354517D03*
G04 #@! TD*
D12*
G04 #@! TO.C,C7*
X85000000Y-62000000D03*
X87000000Y-62000000D03*
G04 #@! TD*
D16*
G04 #@! TO.C,U3*
X101404098Y-56066328D03*
X101404098Y-55566328D03*
X101404098Y-55066328D03*
X101404098Y-54566328D03*
D17*
X100734098Y-54396328D03*
X100234098Y-54396328D03*
X99734098Y-54396328D03*
D16*
X99064098Y-54566328D03*
X99064098Y-55066328D03*
X99064098Y-55566328D03*
X99064098Y-56066328D03*
D17*
X99734098Y-56236328D03*
X100234098Y-56236328D03*
X100734098Y-56236328D03*
G04 #@! TD*
D11*
G04 #@! TO.C,SWDCLK1*
X93005226Y-68441328D03*
G04 #@! TD*
D12*
G04 #@! TO.C,C8*
X99234098Y-53236328D03*
X101234098Y-53236328D03*
G04 #@! TD*
D18*
G04 #@! TO.C,U2*
X85954838Y-59071689D03*
X86354838Y-59071689D03*
X86754838Y-59071689D03*
X87154838Y-59071689D03*
X87554838Y-59071689D03*
X87554838Y-56971689D03*
X87154838Y-56971689D03*
X86754838Y-56971689D03*
X86354838Y-56971689D03*
X85954838Y-56971689D03*
D19*
X86754838Y-58021689D03*
G04 #@! TD*
D11*
G04 #@! TO.C,RESET1*
X95019050Y-70494460D03*
G04 #@! TD*
G04 #@! TO.C,ELE7*
X105000000Y-61000000D03*
G04 #@! TD*
D20*
G04 #@! TO.C,U4*
X99110000Y-60700000D03*
D21*
X99110000Y-61100000D03*
X99110001Y-61500000D03*
X99110000Y-61900000D03*
D22*
X99110000Y-62300000D03*
D23*
X99700000Y-62890000D03*
D24*
X100100000Y-62890000D03*
X100500000Y-62889999D03*
X100900000Y-62890000D03*
D25*
X101300000Y-62890000D03*
D26*
X101890000Y-62300000D03*
D21*
X101890000Y-61900000D03*
X101889999Y-61500000D03*
X101890000Y-61100000D03*
D27*
X101890000Y-60700000D03*
D28*
X101300000Y-60110000D03*
D24*
X100900000Y-60110000D03*
X100500000Y-60110001D03*
X100100000Y-60110000D03*
D29*
X99700000Y-60110000D03*
G04 #@! TD*
D11*
G04 #@! TO.C,SWDIO1*
X95000000Y-68441328D03*
G04 #@! TD*
G04 #@! TO.C,ELE5*
X105000000Y-68341203D03*
G04 #@! TD*
G04 #@! TO.C,GND1*
X97005664Y-68441835D03*
G04 #@! TD*
D30*
G04 #@! TO.C,U1*
X88880000Y-54000000D03*
X88880000Y-55000000D03*
X88880000Y-56000000D03*
X88880000Y-57000000D03*
X88880000Y-58000000D03*
X88880000Y-59000000D03*
X88880000Y-60000000D03*
X88880000Y-61000000D03*
X88880000Y-62000000D03*
X88880000Y-63000000D03*
D31*
X91000000Y-63000000D03*
X92000000Y-63000000D03*
X93000000Y-63000000D03*
X94000000Y-63000000D03*
X95000000Y-63000000D03*
D30*
X97120000Y-63000000D03*
X97120000Y-62000000D03*
X97120000Y-61000000D03*
X97120000Y-60000000D03*
X97120000Y-59000000D03*
X97120000Y-58000000D03*
X97120000Y-57000000D03*
X97120000Y-56000000D03*
X97120000Y-55000000D03*
X97120000Y-54000000D03*
D31*
X95000000Y-54070000D03*
X94000000Y-54070000D03*
X93000000Y-54070000D03*
X92000000Y-54070000D03*
X91000000Y-54070000D03*
D32*
X90250000Y-55450000D03*
X90250000Y-56550000D03*
X90250000Y-57650000D03*
X90250000Y-58750000D03*
X90250000Y-59850000D03*
X90250000Y-60950000D03*
X95750000Y-60950000D03*
X95750000Y-59850000D03*
X95750000Y-58750000D03*
X95750000Y-57650000D03*
X95750000Y-56550000D03*
X95750000Y-55450000D03*
X94650000Y-55450000D03*
X93550000Y-55450000D03*
X92450000Y-55450000D03*
X91350000Y-55450000D03*
X97000000Y-52850000D03*
X96000000Y-52850000D03*
X95000000Y-52850000D03*
X94000000Y-52850000D03*
X93000000Y-52850000D03*
X92000000Y-52850000D03*
X91000000Y-52850000D03*
X90000000Y-52850000D03*
X89000000Y-52850000D03*
X91280000Y-57930000D03*
X91280000Y-60230000D03*
X92420000Y-56770000D03*
X92420000Y-57930000D03*
X92420000Y-59070000D03*
X92420000Y-60230000D03*
X93580000Y-56770000D03*
X93580000Y-57930000D03*
X93580000Y-59070000D03*
X93580000Y-60230000D03*
X94720000Y-57930000D03*
X94720000Y-60230000D03*
X97350000Y-64000000D03*
X88650000Y-64000000D03*
X88650000Y-66550000D03*
X97350000Y-66550000D03*
G04 #@! TD*
D11*
G04 #@! TO.C,ELE9*
X103000000Y-59000000D03*
G04 #@! TD*
D14*
G04 #@! TO.C,R7*
X89000000Y-68500000D03*
X91000000Y-68500000D03*
G04 #@! TD*
D11*
G04 #@! TO.C,ELE0*
X97017525Y-70440945D03*
G04 #@! TD*
G04 #@! TO.C,ELE3*
X103000000Y-70367668D03*
G04 #@! TD*
G04 #@! TO.C,ELE1*
X99014737Y-70411878D03*
G04 #@! TD*
D14*
G04 #@! TO.C,R6*
X89000000Y-70500000D03*
X91000000Y-70500000D03*
G04 #@! TD*
D11*
G04 #@! TO.C,ELE2*
X101009477Y-70395856D03*
G04 #@! TD*
D12*
G04 #@! TO.C,C3*
X85000000Y-68000000D03*
X87000000Y-68000000D03*
G04 #@! TD*
D11*
G04 #@! TO.C,ELE11*
X102973684Y-56976837D03*
G04 #@! TD*
D33*
G04 #@! TO.C,C6*
X99000000Y-67500000D03*
X99000000Y-65500000D03*
G04 #@! TD*
D15*
G04 #@! TO.C,R3*
X83636174Y-55523233D03*
X83636174Y-54023233D03*
G04 #@! TD*
D34*
G04 #@! TO.C,C2*
X84500000Y-57500000D03*
X84500000Y-58900000D03*
G04 #@! TD*
M02*
