%TF.GenerationSoftware,KiCad,Pcbnew,10.0.4*%
%TF.CreationDate,2026-07-13T12:43:43-04:00*%
%TF.ProjectId,smartsole-pcb,736d6172-7473-46f6-9c65-2d7063622e6b,rev?*%
%TF.SameCoordinates,Original*%
%TF.FileFunction,Drillmap*%
%TF.FilePolarity,Positive*%
%FSLAX45Y45*%
G04 Gerber Fmt 4.5, Leading zero omitted, Abs format (unit mm)*
G04 Created by KiCad (PCBNEW 10.0.4) date 2026-07-13 12:43:43*
%MOMM*%
%LPD*%
G01*
G04 APERTURE LIST*
%ADD10C,0.050000*%
%ADD11C,0.200000*%
G04 APERTURE END LIST*
D10*
X8200000Y-5100000D02*
X10600000Y-5100000D01*
X10600000Y-7350000D01*
X8200000Y-7350000D01*
X8200000Y-5100000D01*
D11*
X8458277Y-7663984D02*
X8458277Y-7463984D01*
X8458277Y-7463984D02*
X8505896Y-7463984D01*
X8505896Y-7463984D02*
X8534467Y-7473507D01*
X8534467Y-7473507D02*
X8553515Y-7492555D01*
X8553515Y-7492555D02*
X8563039Y-7511603D01*
X8563039Y-7511603D02*
X8572563Y-7549698D01*
X8572563Y-7549698D02*
X8572563Y-7578269D01*
X8572563Y-7578269D02*
X8563039Y-7616365D01*
X8563039Y-7616365D02*
X8553515Y-7635412D01*
X8553515Y-7635412D02*
X8534467Y-7654460D01*
X8534467Y-7654460D02*
X8505896Y-7663984D01*
X8505896Y-7663984D02*
X8458277Y-7663984D01*
X8658277Y-7663984D02*
X8658277Y-7530650D01*
X8658277Y-7568746D02*
X8667801Y-7549698D01*
X8667801Y-7549698D02*
X8677324Y-7540174D01*
X8677324Y-7540174D02*
X8696372Y-7530650D01*
X8696372Y-7530650D02*
X8715420Y-7530650D01*
X8782086Y-7663984D02*
X8782086Y-7530650D01*
X8782086Y-7463984D02*
X8772563Y-7473507D01*
X8772563Y-7473507D02*
X8782086Y-7483031D01*
X8782086Y-7483031D02*
X8791610Y-7473507D01*
X8791610Y-7473507D02*
X8782086Y-7463984D01*
X8782086Y-7463984D02*
X8782086Y-7483031D01*
X8905896Y-7663984D02*
X8886848Y-7654460D01*
X8886848Y-7654460D02*
X8877324Y-7635412D01*
X8877324Y-7635412D02*
X8877324Y-7463984D01*
X9010658Y-7663984D02*
X8991610Y-7654460D01*
X8991610Y-7654460D02*
X8982086Y-7635412D01*
X8982086Y-7635412D02*
X8982086Y-7463984D01*
X9239229Y-7663984D02*
X9239229Y-7463984D01*
X9239229Y-7463984D02*
X9305896Y-7606841D01*
X9305896Y-7606841D02*
X9372563Y-7463984D01*
X9372563Y-7463984D02*
X9372563Y-7663984D01*
X9553515Y-7663984D02*
X9553515Y-7559222D01*
X9553515Y-7559222D02*
X9543991Y-7540174D01*
X9543991Y-7540174D02*
X9524944Y-7530650D01*
X9524944Y-7530650D02*
X9486848Y-7530650D01*
X9486848Y-7530650D02*
X9467801Y-7540174D01*
X9553515Y-7654460D02*
X9534467Y-7663984D01*
X9534467Y-7663984D02*
X9486848Y-7663984D01*
X9486848Y-7663984D02*
X9467801Y-7654460D01*
X9467801Y-7654460D02*
X9458277Y-7635412D01*
X9458277Y-7635412D02*
X9458277Y-7616365D01*
X9458277Y-7616365D02*
X9467801Y-7597317D01*
X9467801Y-7597317D02*
X9486848Y-7587793D01*
X9486848Y-7587793D02*
X9534467Y-7587793D01*
X9534467Y-7587793D02*
X9553515Y-7578269D01*
X9648753Y-7530650D02*
X9648753Y-7730650D01*
X9648753Y-7540174D02*
X9667801Y-7530650D01*
X9667801Y-7530650D02*
X9705896Y-7530650D01*
X9705896Y-7530650D02*
X9724944Y-7540174D01*
X9724944Y-7540174D02*
X9734467Y-7549698D01*
X9734467Y-7549698D02*
X9743991Y-7568746D01*
X9743991Y-7568746D02*
X9743991Y-7625888D01*
X9743991Y-7625888D02*
X9734467Y-7644936D01*
X9734467Y-7644936D02*
X9724944Y-7654460D01*
X9724944Y-7654460D02*
X9705896Y-7663984D01*
X9705896Y-7663984D02*
X9667801Y-7663984D01*
X9667801Y-7663984D02*
X9648753Y-7654460D01*
X9829705Y-7644936D02*
X9839229Y-7654460D01*
X9839229Y-7654460D02*
X9829705Y-7663984D01*
X9829705Y-7663984D02*
X9820182Y-7654460D01*
X9820182Y-7654460D02*
X9829705Y-7644936D01*
X9829705Y-7644936D02*
X9829705Y-7663984D01*
X9829705Y-7540174D02*
X9839229Y-7549698D01*
X9839229Y-7549698D02*
X9829705Y-7559222D01*
X9829705Y-7559222D02*
X9820182Y-7549698D01*
X9820182Y-7549698D02*
X9829705Y-7540174D01*
X9829705Y-7540174D02*
X9829705Y-7559222D01*
M02*
