G04 #@! TF.GenerationSoftware,KiCad,Pcbnew,10.0.4*
G04 #@! TF.CreationDate,2026-07-13T12:43:43-04:00*
G04 #@! TF.ProjectId,smartsole-pcb,736d6172-7473-46f6-9c65-2d7063622e6b,rev?*
G04 #@! TF.SameCoordinates,Original*
G04 #@! TF.FileFunction,Copper,L2,Bot*
G04 #@! TF.FilePolarity,Positive*
%FSLAX46Y46*%
G04 Gerber Fmt 4.6, Leading zero omitted, Abs format (unit mm)*
G04 Created by KiCad (PCBNEW 10.0.4) date 2026-07-13 12:43:43*
%MOMM*%
%LPD*%
G01*
G04 APERTURE LIST*
G04 #@! TA.AperFunction,ComponentPad*
%ADD10R,1.000000X1.000000*%
G04 #@! TD*
G04 #@! TA.AperFunction,ViaPad*
%ADD11C,0.600000*%
G04 #@! TD*
G04 #@! TA.AperFunction,Conductor*
%ADD12C,0.400000*%
G04 #@! TD*
G04 #@! TA.AperFunction,Conductor*
%ADD13C,0.700000*%
G04 #@! TD*
G04 #@! TA.AperFunction,Conductor*
%ADD14C,0.200000*%
G04 #@! TD*
G04 APERTURE END LIST*
D10*
G04 #@! TO.P,ELE10,1,Pin_1_1*
G04 #@! TO.N,Net-(ELE10-Pin_1)*
X104974681Y-56976837D03*
G04 #@! TD*
G04 #@! TO.P,VCC1,1,Pin_1_1*
G04 #@! TO.N,/BAT*
X83000000Y-57500000D03*
G04 #@! TD*
G04 #@! TO.P,ELE6,1,Pin_1_1*
G04 #@! TO.N,Net-(ELE6-Pin_1)*
X104990480Y-66340539D03*
G04 #@! TD*
G04 #@! TO.P,GND2,1,Pin_1_1*
G04 #@! TO.N,GND*
X83000000Y-59500000D03*
G04 #@! TD*
G04 #@! TO.P,+3.3V1,1,Pin_1_1*
G04 #@! TO.N,/+3.3V*
X93019050Y-70494460D03*
G04 #@! TD*
G04 #@! TO.P,ELE8,1,Pin_1_1*
G04 #@! TO.N,Net-(ELE8-Pin_1)*
X105000000Y-59000000D03*
G04 #@! TD*
G04 #@! TO.P,ELE4,1,Pin_1_1*
G04 #@! TO.N,Net-(ELE4-Pin_1)*
X105000000Y-70354517D03*
G04 #@! TD*
G04 #@! TO.P,SWDCLK1,1,Pin_1_1*
G04 #@! TO.N,Net-(SWDCLK1-Pin_1)*
X93005226Y-68441328D03*
G04 #@! TD*
G04 #@! TO.P,RESET1,1,Pin_1_1*
G04 #@! TO.N,/+3.3V*
X95019050Y-70494460D03*
G04 #@! TD*
G04 #@! TO.P,ELE7,1,Pin_1_1*
G04 #@! TO.N,Net-(ELE7-Pin_1)*
X105000000Y-61000000D03*
G04 #@! TD*
G04 #@! TO.P,SWDIO1,1,Pin_1_1*
G04 #@! TO.N,Net-(SWDIO1-Pin_1)*
X95000000Y-68441328D03*
G04 #@! TD*
G04 #@! TO.P,ELE5,1,Pin_1_1*
G04 #@! TO.N,Net-(ELE5-Pin_1)*
X105000000Y-68341203D03*
G04 #@! TD*
G04 #@! TO.P,GND1,1,Pin_1_1*
G04 #@! TO.N,GND*
X97005664Y-68441835D03*
G04 #@! TD*
G04 #@! TO.P,ELE9,1,Pin_1_1*
G04 #@! TO.N,Net-(ELE9-Pin_1)*
X103000000Y-59000000D03*
G04 #@! TD*
G04 #@! TO.P,ELE0,1,Pin_1_1*
G04 #@! TO.N,Net-(ELE0-Pin_1)*
X97017525Y-70440945D03*
G04 #@! TD*
G04 #@! TO.P,ELE3,1,Pin_1_1*
G04 #@! TO.N,Net-(ELE3-Pin_1)*
X103000000Y-70367668D03*
G04 #@! TD*
G04 #@! TO.P,ELE1,1,Pin_1_1*
G04 #@! TO.N,Net-(ELE1-Pin_1)*
X99014737Y-70411878D03*
G04 #@! TD*
G04 #@! TO.P,ELE2,1,Pin_1_1*
G04 #@! TO.N,Net-(ELE2-Pin_1)*
X101009477Y-70395856D03*
G04 #@! TD*
G04 #@! TO.P,ELE11,1,Pin_1_1*
G04 #@! TO.N,Net-(ELE11-Pin_1)*
X102973684Y-56976837D03*
G04 #@! TD*
D11*
G04 #@! TO.N,GND*
X100134098Y-55036328D03*
X95845559Y-54003074D03*
X102263571Y-55982782D03*
X100950945Y-61969570D03*
X94615825Y-56730715D03*
G04 #@! TO.N,/BAT*
X87539452Y-60387982D03*
G04 #@! TO.N,/+3.3V*
X98711880Y-59716387D03*
X87924080Y-70160487D03*
G04 #@! TO.N,/IRQ*
X98236405Y-60500000D03*
X95034023Y-59079615D03*
X85000000Y-71000000D03*
G04 #@! TO.N,/32*
X91000000Y-56500000D03*
X102234098Y-54736328D03*
G04 #@! TO.N,/50*
X98269201Y-55360069D03*
X102697804Y-52849259D03*
G04 #@! TO.N,/SCL*
X92000000Y-71500000D03*
X99772180Y-57772179D03*
X100283434Y-61227891D03*
G04 #@! TO.N,/SDA*
X91000000Y-71500000D03*
X98195002Y-62000000D03*
X99351748Y-58858267D03*
G04 #@! TO.N,Net-(SWDCLK1-Pin_1)*
X91000000Y-62000000D03*
G04 #@! TO.N,Net-(SWDIO1-Pin_1)*
X95000000Y-62000000D03*
G04 #@! TD*
G04 #@! TO.N,/SCL*
D12*
X92000000Y-67846554D02*
X92346554Y-67500000D01*
X99772180Y-57772179D02*
X100232917Y-58232916D01*
X100283434Y-66216566D02*
X100283434Y-61227891D01*
X92000000Y-71500000D02*
X92000000Y-67846554D01*
X100232917Y-58232916D02*
X100232917Y-61177374D01*
X99000000Y-67500000D02*
X100283434Y-66216566D01*
X92346554Y-67500000D02*
X99000000Y-67500000D01*
G04 #@! TO.N,/BAT*
D13*
X87539452Y-60387982D02*
X84651470Y-57500000D01*
X84651470Y-57500000D02*
X83000000Y-57500000D01*
G04 #@! TO.N,/+3.3V*
D14*
X86300000Y-63539886D02*
X87222743Y-62617143D01*
X93019050Y-71480950D02*
X92400000Y-72100000D01*
X89848318Y-72100000D02*
X88008016Y-70259698D01*
X99000000Y-60584934D02*
X99000000Y-60004507D01*
X95650571Y-62617143D02*
X97167714Y-61100000D01*
X93019050Y-70494460D02*
X93019050Y-71480950D01*
X98484934Y-61100000D02*
X99000000Y-60584934D01*
X88008016Y-70259698D02*
X86300000Y-68551682D01*
X92400000Y-72100000D02*
X89848318Y-72100000D01*
X97167714Y-61100000D02*
X98484934Y-61100000D01*
X87222743Y-62617143D02*
X95650571Y-62617143D01*
X99000000Y-60004507D02*
X98711880Y-59716387D01*
X86300000Y-68551682D02*
X86300000Y-63539886D01*
G04 #@! TO.N,/IRQ*
X95142751Y-59142751D02*
X96500000Y-60500000D01*
X95097159Y-59142751D02*
X95142751Y-59142751D01*
X87953667Y-61387982D02*
X86754846Y-61387982D01*
X96500000Y-60500000D02*
X98236405Y-60500000D01*
X90341649Y-59000000D02*
X87953667Y-61387982D01*
X85000000Y-63142828D02*
X85000000Y-71000000D01*
X86754846Y-61387982D02*
X85000000Y-63142828D01*
X95034023Y-59079615D02*
X94954408Y-59000000D01*
X94954408Y-59000000D02*
X90341649Y-59000000D01*
X95034023Y-59079615D02*
X95097159Y-59142751D01*
G04 #@! TO.N,/32*
X103773684Y-57776837D02*
X103773684Y-56275914D01*
X103773684Y-56275914D02*
X102234098Y-54736328D01*
X102173684Y-57776837D02*
X103773684Y-57776837D01*
X91000000Y-56500000D02*
X91500000Y-56000000D01*
X100396847Y-56000000D02*
X102173684Y-57776837D01*
X91500000Y-56000000D02*
X100396847Y-56000000D01*
G04 #@! TO.N,/50*
X96354025Y-55360069D02*
X98269201Y-55360069D01*
X96150845Y-52849259D02*
X102697804Y-52849259D01*
X95245559Y-54251603D02*
X95245559Y-53754545D01*
X96354025Y-55360069D02*
X95245559Y-54251603D01*
X95245559Y-53754545D02*
X96150845Y-52849259D01*
G04 #@! TO.N,/SCL*
X100232917Y-61177374D02*
X100283434Y-61227891D01*
G04 #@! TO.N,/SDA*
X86700000Y-64000000D02*
X87682857Y-63017143D01*
X99400000Y-58906519D02*
X99351748Y-58858267D01*
X98195002Y-62000000D02*
X99400000Y-60795002D01*
X91000000Y-71500000D02*
X86700000Y-67200000D01*
X97280869Y-62000000D02*
X98195002Y-62000000D01*
X86700000Y-67200000D02*
X86700000Y-64000000D01*
X87682857Y-63017143D02*
X96263726Y-63017143D01*
X99400000Y-60795002D02*
X99400000Y-58906519D01*
X96263726Y-63017143D02*
X97280869Y-62000000D01*
G04 #@! TO.N,Net-(SWDCLK1-Pin_1)*
X85900000Y-69000211D02*
X85900000Y-63374200D01*
X88473020Y-62000000D02*
X91000000Y-62000000D01*
X85900000Y-63374200D02*
X87086218Y-62187982D01*
X89399789Y-72500000D02*
X85900000Y-69000211D01*
X94000000Y-71113510D02*
X92613510Y-72500000D01*
X93005226Y-68441328D02*
X94000000Y-69436102D01*
X92613510Y-72500000D02*
X89399789Y-72500000D01*
X87086218Y-62187982D02*
X88285039Y-62187982D01*
X94000000Y-69436102D02*
X94000000Y-71113510D01*
X88285039Y-62187982D02*
X88473020Y-62000000D01*
G04 #@! TO.N,Net-(SWDIO1-Pin_1)*
X86920532Y-61787982D02*
X88119353Y-61787982D01*
X94400000Y-61400000D02*
X95000000Y-62000000D01*
X95819050Y-69260378D02*
X95819050Y-71294460D01*
X88900000Y-72900000D02*
X85500000Y-69500000D01*
X88119353Y-61787982D02*
X88507335Y-61400000D01*
X88507335Y-61400000D02*
X94400000Y-61400000D01*
X95819050Y-71294460D02*
X94213510Y-72900000D01*
X94213510Y-72900000D02*
X88900000Y-72900000D01*
X95000000Y-68441328D02*
X95819050Y-69260378D01*
X85500000Y-63208514D02*
X86920532Y-61787982D01*
X85500000Y-69500000D02*
X85500000Y-63208514D01*
G04 #@! TD*
G04 #@! TA.AperFunction,Conductor*
G04 #@! TO.N,GND*
G36*
X84439122Y-58070185D02*
G01*
X84459764Y-58086819D01*
X87201437Y-60828492D01*
X87249246Y-60856094D01*
X87297462Y-60906661D01*
X87310686Y-60975268D01*
X87284718Y-61040133D01*
X87227804Y-61080662D01*
X87187247Y-61087482D01*
X86715284Y-61087482D01*
X86677070Y-61097721D01*
X86638855Y-61107961D01*
X86638854Y-61107962D01*
X86584122Y-61139562D01*
X86570338Y-61147520D01*
X86570332Y-61147524D01*
X84759541Y-62958315D01*
X84759535Y-62958323D01*
X84719982Y-63026832D01*
X84719979Y-63026837D01*
X84699500Y-63103267D01*
X84699500Y-70541323D01*
X84679815Y-70608362D01*
X84663182Y-70629004D01*
X84599500Y-70692686D01*
X84533608Y-70806812D01*
X84500164Y-70931630D01*
X84499500Y-70934108D01*
X84499500Y-71065892D01*
X84511956Y-71112378D01*
X84533608Y-71193187D01*
X84534632Y-71194960D01*
X84599500Y-71307314D01*
X84692686Y-71400500D01*
X84750897Y-71434108D01*
X84796487Y-71460430D01*
X84806814Y-71466392D01*
X84934108Y-71500500D01*
X84934110Y-71500500D01*
X85065890Y-71500500D01*
X85065892Y-71500500D01*
X85193186Y-71466392D01*
X85307314Y-71400500D01*
X85400500Y-71307314D01*
X85466392Y-71193186D01*
X85500500Y-71065892D01*
X85500500Y-70934108D01*
X85466392Y-70806814D01*
X85400500Y-70692686D01*
X85336818Y-70629004D01*
X85303334Y-70567680D01*
X85300500Y-70541323D01*
X85300500Y-70024833D01*
X85320185Y-69957794D01*
X85372989Y-69912039D01*
X85442147Y-69902095D01*
X85505703Y-69931120D01*
X85512181Y-69937152D01*
X88362847Y-72787818D01*
X88396332Y-72849141D01*
X88391348Y-72918833D01*
X88349476Y-72974766D01*
X88284012Y-72999183D01*
X88275166Y-72999499D01*
X82624500Y-72999499D01*
X82557461Y-72979814D01*
X82511706Y-72927010D01*
X82500500Y-72875499D01*
X82500500Y-60624000D01*
X82520185Y-60556961D01*
X82572989Y-60511206D01*
X82624500Y-60500000D01*
X82750000Y-60500000D01*
X83250000Y-60500000D01*
X83547828Y-60500000D01*
X83547844Y-60499999D01*
X83607372Y-60493598D01*
X83607379Y-60493596D01*
X83742086Y-60443354D01*
X83742093Y-60443350D01*
X83857187Y-60357190D01*
X83857190Y-60357187D01*
X83943350Y-60242093D01*
X83943354Y-60242086D01*
X83993596Y-60107379D01*
X83993598Y-60107372D01*
X83999999Y-60047844D01*
X84000000Y-60047827D01*
X84000000Y-59750000D01*
X83250000Y-59750000D01*
X83250000Y-60500000D01*
X82750000Y-60500000D01*
X82750000Y-59549728D01*
X82788060Y-59641614D01*
X82858386Y-59711940D01*
X82950272Y-59750000D01*
X83049728Y-59750000D01*
X83141614Y-59711940D01*
X83211940Y-59641614D01*
X83250000Y-59549728D01*
X83250000Y-59450272D01*
X83211940Y-59358386D01*
X83141614Y-59288060D01*
X83049728Y-59250000D01*
X83250000Y-59250000D01*
X84000000Y-59250000D01*
X84000000Y-58952172D01*
X83999999Y-58952155D01*
X83993598Y-58892627D01*
X83993596Y-58892620D01*
X83943354Y-58757913D01*
X83943350Y-58757906D01*
X83857190Y-58642812D01*
X83857187Y-58642809D01*
X83742093Y-58556649D01*
X83742086Y-58556645D01*
X83607379Y-58506403D01*
X83607372Y-58506401D01*
X83547844Y-58500000D01*
X83250000Y-58500000D01*
X83250000Y-59250000D01*
X83049728Y-59250000D01*
X82950272Y-59250000D01*
X82858386Y-59288060D01*
X82788060Y-59358386D01*
X82750000Y-59450272D01*
X82750000Y-58500000D01*
X82624500Y-58500000D01*
X82615814Y-58497449D01*
X82606853Y-58498738D01*
X82582812Y-58487759D01*
X82557461Y-58480315D01*
X82551533Y-58473474D01*
X82543297Y-58469713D01*
X82529007Y-58447478D01*
X82511706Y-58427511D01*
X82509418Y-58416996D01*
X82505523Y-58410935D01*
X82500500Y-58376000D01*
X82500500Y-58324500D01*
X82520185Y-58257461D01*
X82572989Y-58211706D01*
X82624500Y-58200500D01*
X83519750Y-58200500D01*
X83519751Y-58200499D01*
X83534568Y-58197552D01*
X83578229Y-58188868D01*
X83578229Y-58188867D01*
X83578231Y-58188867D01*
X83644552Y-58144552D01*
X83644553Y-58144551D01*
X83670575Y-58105608D01*
X83724187Y-58060804D01*
X83773676Y-58050500D01*
X84372083Y-58050500D01*
X84439122Y-58070185D01*
G37*
G04 #@! TD.AperFunction*
G04 #@! TA.AperFunction,Conductor*
G36*
X105442539Y-51520184D02*
G01*
X105488294Y-51572988D01*
X105499500Y-51624499D01*
X105499500Y-56152337D01*
X105479815Y-56219376D01*
X105427011Y-56265131D01*
X105375500Y-56276337D01*
X104454928Y-56276337D01*
X104396451Y-56287968D01*
X104396450Y-56287969D01*
X104330129Y-56332284D01*
X104301286Y-56375451D01*
X104247673Y-56420255D01*
X104178348Y-56428962D01*
X104115321Y-56398807D01*
X104078602Y-56339364D01*
X104074184Y-56306559D01*
X104074184Y-56236353D01*
X104062483Y-56192686D01*
X104053705Y-56159925D01*
X104049324Y-56152337D01*
X104014148Y-56091409D01*
X104014142Y-56091401D01*
X102770917Y-54848176D01*
X102737432Y-54786853D01*
X102734598Y-54760495D01*
X102734598Y-54670438D01*
X102734598Y-54670436D01*
X102700490Y-54543142D01*
X102634598Y-54429014D01*
X102541412Y-54335828D01*
X102464054Y-54291165D01*
X102427285Y-54269936D01*
X102363637Y-54252882D01*
X102299990Y-54235828D01*
X102168206Y-54235828D01*
X102040910Y-54269936D01*
X101926784Y-54335828D01*
X101926781Y-54335830D01*
X101833600Y-54429011D01*
X101833599Y-54429013D01*
X101767706Y-54543140D01*
X101733598Y-54670436D01*
X101733598Y-54802220D01*
X101745912Y-54848176D01*
X101767706Y-54929515D01*
X101785058Y-54959569D01*
X101833598Y-55043642D01*
X101926784Y-55136828D01*
X102040912Y-55202720D01*
X102168206Y-55236828D01*
X102168208Y-55236828D01*
X102258265Y-55236828D01*
X102325304Y-55256513D01*
X102345946Y-55273147D01*
X103137455Y-56064656D01*
X103170940Y-56125979D01*
X103165956Y-56195671D01*
X103124084Y-56251604D01*
X103058620Y-56276021D01*
X103049774Y-56276337D01*
X102453931Y-56276337D01*
X102395454Y-56287968D01*
X102395453Y-56287969D01*
X102329131Y-56332284D01*
X102284816Y-56398606D01*
X102284815Y-56398607D01*
X102273184Y-56457084D01*
X102273184Y-57152004D01*
X102253499Y-57219043D01*
X102200695Y-57264798D01*
X102131537Y-57274742D01*
X102067981Y-57245717D01*
X102061503Y-57239685D01*
X100581357Y-55759539D01*
X100558612Y-55746408D01*
X100535867Y-55733276D01*
X100530998Y-55730465D01*
X100512837Y-55719979D01*
X100512838Y-55719979D01*
X100474622Y-55709739D01*
X100436409Y-55699500D01*
X100436407Y-55699500D01*
X98858006Y-55699500D01*
X98790967Y-55679815D01*
X98745212Y-55627011D01*
X98735268Y-55557853D01*
X98738227Y-55543422D01*
X98769701Y-55425961D01*
X98769701Y-55294177D01*
X98735593Y-55166883D01*
X98669701Y-55052755D01*
X98576515Y-54959569D01*
X98519451Y-54926623D01*
X98462388Y-54893677D01*
X98398740Y-54876623D01*
X98335093Y-54859569D01*
X98203309Y-54859569D01*
X98076013Y-54893677D01*
X97961887Y-54959569D01*
X97961884Y-54959571D01*
X97898206Y-55023250D01*
X97836883Y-55056735D01*
X97810525Y-55059569D01*
X96529858Y-55059569D01*
X96462819Y-55039884D01*
X96442177Y-55023250D01*
X95582378Y-54163451D01*
X95567674Y-54136523D01*
X95551082Y-54110705D01*
X95550190Y-54104504D01*
X95548893Y-54102128D01*
X95546059Y-54075770D01*
X95546059Y-53930378D01*
X95565744Y-53863339D01*
X95582378Y-53842697D01*
X96238997Y-53186078D01*
X96300320Y-53152593D01*
X96326678Y-53149759D01*
X102239128Y-53149759D01*
X102306167Y-53169444D01*
X102326809Y-53186078D01*
X102390490Y-53249759D01*
X102504618Y-53315651D01*
X102631912Y-53349759D01*
X102631914Y-53349759D01*
X102763694Y-53349759D01*
X102763696Y-53349759D01*
X102890990Y-53315651D01*
X103005118Y-53249759D01*
X103098304Y-53156573D01*
X103164196Y-53042445D01*
X103198304Y-52915151D01*
X103198304Y-52783367D01*
X103164196Y-52656073D01*
X103098304Y-52541945D01*
X103005118Y-52448759D01*
X102948054Y-52415813D01*
X102890991Y-52382867D01*
X102827343Y-52365813D01*
X102763696Y-52348759D01*
X102631912Y-52348759D01*
X102504616Y-52382867D01*
X102390490Y-52448759D01*
X102390487Y-52448761D01*
X102326809Y-52512440D01*
X102265486Y-52545925D01*
X102239128Y-52548759D01*
X96111283Y-52548759D01*
X96034855Y-52569237D01*
X95966334Y-52608799D01*
X95966331Y-52608801D01*
X95005100Y-53570032D01*
X95005094Y-53570040D01*
X94965541Y-53638549D01*
X94965538Y-53638554D01*
X94951885Y-53689507D01*
X94945059Y-53714983D01*
X94945059Y-54291165D01*
X94957027Y-54335828D01*
X94965538Y-54367593D01*
X94983269Y-54398303D01*
X95001000Y-54429014D01*
X95001003Y-54429020D01*
X95005097Y-54436111D01*
X95005100Y-54436116D01*
X96056804Y-55487819D01*
X96090289Y-55549142D01*
X96085305Y-55618834D01*
X96043433Y-55674767D01*
X95977969Y-55699184D01*
X95969123Y-55699500D01*
X91460438Y-55699500D01*
X91384010Y-55719978D01*
X91315489Y-55759540D01*
X91315486Y-55759542D01*
X91111847Y-55963181D01*
X91050524Y-55996666D01*
X91024166Y-55999500D01*
X90934108Y-55999500D01*
X90806812Y-56033608D01*
X90692686Y-56099500D01*
X90692683Y-56099502D01*
X90599502Y-56192683D01*
X90599500Y-56192686D01*
X90533608Y-56306812D01*
X90499500Y-56434108D01*
X90499500Y-56565891D01*
X90533608Y-56693187D01*
X90553137Y-56727011D01*
X90599500Y-56807314D01*
X90692686Y-56900500D01*
X90806814Y-56966392D01*
X90934108Y-57000500D01*
X90934110Y-57000500D01*
X91065890Y-57000500D01*
X91065892Y-57000500D01*
X91193186Y-56966392D01*
X91307314Y-56900500D01*
X91400500Y-56807314D01*
X91466392Y-56693186D01*
X91500500Y-56565892D01*
X91500500Y-56475833D01*
X91509144Y-56446395D01*
X91515668Y-56416405D01*
X91519422Y-56411389D01*
X91520185Y-56408794D01*
X91536820Y-56388151D01*
X91588154Y-56336818D01*
X91649477Y-56303334D01*
X91675834Y-56300500D01*
X100221014Y-56300500D01*
X100288053Y-56320185D01*
X100308694Y-56336818D01*
X101933224Y-57961348D01*
X101989173Y-58017297D01*
X101989175Y-58017298D01*
X101989179Y-58017301D01*
X102057688Y-58056854D01*
X102057695Y-58056858D01*
X102134122Y-58077337D01*
X102134124Y-58077337D01*
X102362896Y-58077337D01*
X102429935Y-58097022D01*
X102475690Y-58149826D01*
X102485634Y-58218984D01*
X102456609Y-58282540D01*
X102431787Y-58304439D01*
X102355447Y-58355447D01*
X102311132Y-58421769D01*
X102311131Y-58421770D01*
X102299500Y-58480247D01*
X102299500Y-59519752D01*
X102311131Y-59578229D01*
X102311132Y-59578230D01*
X102355447Y-59644552D01*
X102421769Y-59688867D01*
X102421770Y-59688868D01*
X102480247Y-59700499D01*
X102480250Y-59700500D01*
X102480252Y-59700500D01*
X103519750Y-59700500D01*
X103519751Y-59700499D01*
X103534568Y-59697552D01*
X103578229Y-59688868D01*
X103578229Y-59688867D01*
X103578231Y-59688867D01*
X103644552Y-59644552D01*
X103688867Y-59578231D01*
X103688867Y-59578229D01*
X103688868Y-59578229D01*
X103699813Y-59523201D01*
X103700500Y-59519748D01*
X103700500Y-58480252D01*
X103700500Y-58480249D01*
X103700499Y-58480247D01*
X103688868Y-58421770D01*
X103688867Y-58421769D01*
X103644552Y-58355447D01*
X103568213Y-58304439D01*
X103523408Y-58250826D01*
X103514701Y-58181501D01*
X103544856Y-58118474D01*
X103604299Y-58081755D01*
X103637104Y-58077337D01*
X103813244Y-58077337D01*
X103813246Y-58077337D01*
X103889673Y-58056858D01*
X103958195Y-58017297D01*
X104014144Y-57961348D01*
X104053705Y-57892826D01*
X104074184Y-57816399D01*
X104074184Y-57647114D01*
X104093869Y-57580075D01*
X104146673Y-57534320D01*
X104215831Y-57524376D01*
X104279387Y-57553401D01*
X104301286Y-57578223D01*
X104330128Y-57621389D01*
X104396450Y-57665704D01*
X104396451Y-57665705D01*
X104454928Y-57677336D01*
X104454931Y-57677337D01*
X105375500Y-57677337D01*
X105442539Y-57697022D01*
X105488294Y-57749826D01*
X105499500Y-57801337D01*
X105499500Y-58175500D01*
X105479815Y-58242539D01*
X105427011Y-58288294D01*
X105375500Y-58299500D01*
X104480247Y-58299500D01*
X104421770Y-58311131D01*
X104421769Y-58311132D01*
X104355447Y-58355447D01*
X104311132Y-58421769D01*
X104311131Y-58421770D01*
X104299500Y-58480247D01*
X104299500Y-59519752D01*
X104311131Y-59578229D01*
X104311132Y-59578230D01*
X104355447Y-59644552D01*
X104421769Y-59688867D01*
X104421770Y-59688868D01*
X104480247Y-59700499D01*
X104480250Y-59700500D01*
X104480252Y-59700500D01*
X105375500Y-59700500D01*
X105442539Y-59720185D01*
X105488294Y-59772989D01*
X105499500Y-59824500D01*
X105499500Y-60175500D01*
X105479815Y-60242539D01*
X105427011Y-60288294D01*
X105375500Y-60299500D01*
X104480247Y-60299500D01*
X104421770Y-60311131D01*
X104421769Y-60311132D01*
X104355447Y-60355447D01*
X104311132Y-60421769D01*
X104311131Y-60421770D01*
X104299500Y-60480247D01*
X104299500Y-61519752D01*
X104311131Y-61578229D01*
X104311132Y-61578230D01*
X104355447Y-61644552D01*
X104421769Y-61688867D01*
X104421770Y-61688868D01*
X104480247Y-61700499D01*
X104480250Y-61700500D01*
X104480252Y-61700500D01*
X105375500Y-61700500D01*
X105442539Y-61720185D01*
X105488294Y-61772989D01*
X105499500Y-61824500D01*
X105499500Y-65516039D01*
X105479815Y-65583078D01*
X105427011Y-65628833D01*
X105375500Y-65640039D01*
X104470727Y-65640039D01*
X104412250Y-65651670D01*
X104412249Y-65651671D01*
X104345927Y-65695986D01*
X104301612Y-65762308D01*
X104301611Y-65762309D01*
X104289980Y-65820786D01*
X104289980Y-66860291D01*
X104301611Y-66918768D01*
X104301612Y-66918769D01*
X104345927Y-66985091D01*
X104412249Y-67029406D01*
X104412250Y-67029407D01*
X104470727Y-67041038D01*
X104470730Y-67041039D01*
X104470732Y-67041039D01*
X105375500Y-67041039D01*
X105442539Y-67060724D01*
X105488294Y-67113528D01*
X105499500Y-67165039D01*
X105499500Y-67516703D01*
X105479815Y-67583742D01*
X105427011Y-67629497D01*
X105375500Y-67640703D01*
X104480247Y-67640703D01*
X104421770Y-67652334D01*
X104421769Y-67652335D01*
X104355447Y-67696650D01*
X104311132Y-67762972D01*
X104311131Y-67762973D01*
X104299500Y-67821450D01*
X104299500Y-68860955D01*
X104311131Y-68919432D01*
X104311132Y-68919433D01*
X104355447Y-68985755D01*
X104421769Y-69030070D01*
X104421770Y-69030071D01*
X104480247Y-69041702D01*
X104480250Y-69041703D01*
X104480252Y-69041703D01*
X105375500Y-69041703D01*
X105442539Y-69061388D01*
X105488294Y-69114192D01*
X105499500Y-69165703D01*
X105499500Y-69530017D01*
X105479815Y-69597056D01*
X105427011Y-69642811D01*
X105375500Y-69654017D01*
X104480247Y-69654017D01*
X104421770Y-69665648D01*
X104421769Y-69665649D01*
X104355447Y-69709964D01*
X104311132Y-69776286D01*
X104311131Y-69776287D01*
X104299500Y-69834764D01*
X104299500Y-70874269D01*
X104311131Y-70932746D01*
X104311132Y-70932747D01*
X104355447Y-70999069D01*
X104421769Y-71043384D01*
X104421770Y-71043385D01*
X104480247Y-71055016D01*
X104480250Y-71055017D01*
X104480252Y-71055017D01*
X105375500Y-71055017D01*
X105442539Y-71074702D01*
X105488294Y-71127506D01*
X105499500Y-71179017D01*
X105499500Y-72875499D01*
X105479815Y-72942538D01*
X105427011Y-72988293D01*
X105375500Y-72999499D01*
X94838344Y-72999499D01*
X94771305Y-72979814D01*
X94725550Y-72927010D01*
X94715606Y-72857852D01*
X94744631Y-72794296D01*
X94750663Y-72787818D01*
X95150662Y-72387819D01*
X96059510Y-71478971D01*
X96070210Y-71460438D01*
X96099071Y-71410449D01*
X96119550Y-71334022D01*
X96119550Y-71114996D01*
X96139235Y-71047957D01*
X96192039Y-71002202D01*
X96261197Y-70992258D01*
X96324753Y-71021283D01*
X96346652Y-71046106D01*
X96372971Y-71085496D01*
X96439294Y-71129812D01*
X96439295Y-71129813D01*
X96497772Y-71141444D01*
X96497775Y-71141445D01*
X96497777Y-71141445D01*
X97537275Y-71141445D01*
X97537276Y-71141444D01*
X97552093Y-71138497D01*
X97595754Y-71129813D01*
X97595754Y-71129812D01*
X97595756Y-71129812D01*
X97662077Y-71085497D01*
X97706392Y-71019176D01*
X97706392Y-71019174D01*
X97706393Y-71019174D01*
X97718024Y-70960697D01*
X97718025Y-70960695D01*
X97718025Y-69921194D01*
X97718024Y-69921192D01*
X97715844Y-69910229D01*
X97712243Y-69892125D01*
X98314237Y-69892125D01*
X98314237Y-70931630D01*
X98325868Y-70990107D01*
X98325869Y-70990108D01*
X98370184Y-71056430D01*
X98436506Y-71100745D01*
X98436507Y-71100746D01*
X98494984Y-71112377D01*
X98494987Y-71112378D01*
X98494989Y-71112378D01*
X99534487Y-71112378D01*
X99534488Y-71112377D01*
X99549305Y-71109430D01*
X99592966Y-71100746D01*
X99592966Y-71100745D01*
X99592968Y-71100745D01*
X99659289Y-71056430D01*
X99703604Y-70990109D01*
X99703604Y-70990107D01*
X99703605Y-70990107D01*
X99715236Y-70931630D01*
X99715237Y-70931628D01*
X99715237Y-69892127D01*
X99715236Y-69892123D01*
X99712050Y-69876103D01*
X100308977Y-69876103D01*
X100308977Y-70915608D01*
X100320608Y-70974085D01*
X100320609Y-70974086D01*
X100364924Y-71040408D01*
X100431246Y-71084723D01*
X100431247Y-71084724D01*
X100489724Y-71096355D01*
X100489727Y-71096356D01*
X100489729Y-71096356D01*
X101529227Y-71096356D01*
X101529228Y-71096355D01*
X101544045Y-71093408D01*
X101587706Y-71084724D01*
X101587706Y-71084723D01*
X101587708Y-71084723D01*
X101654029Y-71040408D01*
X101698344Y-70974087D01*
X101698344Y-70974085D01*
X101698345Y-70974085D01*
X101709976Y-70915608D01*
X101709977Y-70915606D01*
X101709977Y-69876108D01*
X101707970Y-69866018D01*
X101707970Y-69866015D01*
X101704370Y-69847915D01*
X102299500Y-69847915D01*
X102299500Y-70887420D01*
X102311131Y-70945897D01*
X102311132Y-70945898D01*
X102355447Y-71012220D01*
X102421769Y-71056535D01*
X102421770Y-71056536D01*
X102480247Y-71068167D01*
X102480250Y-71068168D01*
X102480252Y-71068168D01*
X103519750Y-71068168D01*
X103519751Y-71068167D01*
X103534568Y-71065220D01*
X103578229Y-71056536D01*
X103578229Y-71056535D01*
X103578231Y-71056535D01*
X103644552Y-71012220D01*
X103688867Y-70945899D01*
X103688867Y-70945897D01*
X103688868Y-70945897D01*
X103700499Y-70887420D01*
X103700500Y-70887418D01*
X103700500Y-69847917D01*
X103700499Y-69847915D01*
X103688868Y-69789438D01*
X103688867Y-69789437D01*
X103644552Y-69723115D01*
X103578230Y-69678800D01*
X103578229Y-69678799D01*
X103519752Y-69667168D01*
X103519748Y-69667168D01*
X102480252Y-69667168D01*
X102480247Y-69667168D01*
X102421770Y-69678799D01*
X102421769Y-69678800D01*
X102355447Y-69723115D01*
X102311132Y-69789437D01*
X102311131Y-69789438D01*
X102299500Y-69847915D01*
X101704370Y-69847915D01*
X101698345Y-69817626D01*
X101698344Y-69817625D01*
X101654029Y-69751303D01*
X101587707Y-69706988D01*
X101587706Y-69706987D01*
X101529229Y-69695356D01*
X101529225Y-69695356D01*
X100489729Y-69695356D01*
X100489724Y-69695356D01*
X100431247Y-69706987D01*
X100431246Y-69706988D01*
X100364924Y-69751303D01*
X100320609Y-69817625D01*
X100320608Y-69817626D01*
X100308977Y-69876103D01*
X99712050Y-69876103D01*
X99703605Y-69833648D01*
X99703604Y-69833647D01*
X99659289Y-69767325D01*
X99592967Y-69723010D01*
X99592966Y-69723009D01*
X99534489Y-69711378D01*
X99534485Y-69711378D01*
X98494989Y-69711378D01*
X98494984Y-69711378D01*
X98436507Y-69723009D01*
X98436506Y-69723010D01*
X98370184Y-69767325D01*
X98325869Y-69833647D01*
X98325868Y-69833648D01*
X98314237Y-69892125D01*
X97712243Y-69892125D01*
X97706393Y-69862715D01*
X97706392Y-69862714D01*
X97662077Y-69796392D01*
X97595755Y-69752077D01*
X97595754Y-69752076D01*
X97537277Y-69740445D01*
X97537273Y-69740445D01*
X96497777Y-69740445D01*
X96497772Y-69740445D01*
X96439295Y-69752076D01*
X96439294Y-69752077D01*
X96372972Y-69796392D01*
X96346652Y-69835784D01*
X96293039Y-69880589D01*
X96223714Y-69889296D01*
X96160687Y-69859141D01*
X96123968Y-69799698D01*
X96119550Y-69766893D01*
X96119550Y-69510063D01*
X96139235Y-69443024D01*
X96192039Y-69397269D01*
X96261197Y-69387325D01*
X96286884Y-69393881D01*
X96398287Y-69435432D01*
X96398291Y-69435433D01*
X96457819Y-69441834D01*
X96457836Y-69441835D01*
X96755664Y-69441835D01*
X97255664Y-69441835D01*
X97553492Y-69441835D01*
X97553508Y-69441834D01*
X97613036Y-69435433D01*
X97613043Y-69435431D01*
X97747750Y-69385189D01*
X97747757Y-69385185D01*
X97862851Y-69299025D01*
X97862854Y-69299022D01*
X97949014Y-69183928D01*
X97949018Y-69183921D01*
X97999260Y-69049214D01*
X97999262Y-69049207D01*
X98005663Y-68989679D01*
X98005664Y-68989662D01*
X98005664Y-68691835D01*
X97255664Y-68691835D01*
X97255664Y-69441835D01*
X96755664Y-69441835D01*
X96755664Y-68691835D01*
X96005664Y-68691835D01*
X96005664Y-68722659D01*
X95999425Y-68743904D01*
X95997846Y-68765993D01*
X95989773Y-68776776D01*
X95985979Y-68789698D01*
X95969245Y-68804197D01*
X95955974Y-68821926D01*
X95943353Y-68826633D01*
X95933175Y-68835453D01*
X95911257Y-68838604D01*
X95890510Y-68846343D01*
X95877349Y-68843480D01*
X95864017Y-68845397D01*
X95843873Y-68836197D01*
X95822237Y-68831491D01*
X95804511Y-68818222D01*
X95800461Y-68816372D01*
X95793983Y-68810340D01*
X95736819Y-68753176D01*
X95703334Y-68691853D01*
X95700500Y-68665495D01*
X95700500Y-68024500D01*
X95720185Y-67957461D01*
X95772989Y-67911706D01*
X95824500Y-67900500D01*
X95881664Y-67900500D01*
X95948703Y-67920185D01*
X95994458Y-67972989D01*
X96005664Y-68024500D01*
X96005664Y-68191835D01*
X96955936Y-68191835D01*
X96864050Y-68229895D01*
X96793724Y-68300221D01*
X96755664Y-68392107D01*
X96755664Y-68491563D01*
X96793724Y-68583449D01*
X96864050Y-68653775D01*
X96955936Y-68691835D01*
X97055392Y-68691835D01*
X97147278Y-68653775D01*
X97217604Y-68583449D01*
X97255664Y-68491563D01*
X97255664Y-68392107D01*
X97217604Y-68300221D01*
X97147278Y-68229895D01*
X97055392Y-68191835D01*
X98005664Y-68191835D01*
X98005664Y-68024500D01*
X98025349Y-67957461D01*
X98078153Y-67911706D01*
X98129664Y-67900500D01*
X99052725Y-67900500D01*
X99052727Y-67900500D01*
X99154588Y-67873207D01*
X99245913Y-67820480D01*
X100529344Y-66537047D01*
X100529347Y-66537046D01*
X100603914Y-66462479D01*
X100636273Y-66406431D01*
X100656641Y-66371154D01*
X100683934Y-66269293D01*
X100683934Y-66163839D01*
X100683934Y-61568430D01*
X100700546Y-61506431D01*
X100749826Y-61421077D01*
X100783934Y-61293783D01*
X100783934Y-61161999D01*
X100749826Y-61034705D01*
X100683934Y-60920577D01*
X100669736Y-60906379D01*
X100636251Y-60845056D01*
X100633417Y-60818698D01*
X100633417Y-58295645D01*
X100633418Y-58295632D01*
X100633418Y-58180192D01*
X100633418Y-58180190D01*
X100606124Y-58078329D01*
X100561189Y-58000500D01*
X100553397Y-57987003D01*
X100478830Y-57912436D01*
X100478827Y-57912434D01*
X100296174Y-57729781D01*
X100264080Y-57674192D01*
X100238573Y-57578995D01*
X100238572Y-57578994D01*
X100238572Y-57578993D01*
X100172680Y-57464865D01*
X100079494Y-57371679D01*
X100022430Y-57338733D01*
X99965367Y-57305787D01*
X99849503Y-57274742D01*
X99838072Y-57271679D01*
X99706288Y-57271679D01*
X99578992Y-57305787D01*
X99464866Y-57371679D01*
X99464863Y-57371681D01*
X99371682Y-57464862D01*
X99371680Y-57464865D01*
X99305788Y-57578991D01*
X99271680Y-57706287D01*
X99271680Y-57838070D01*
X99305788Y-57965366D01*
X99326073Y-58000500D01*
X99371680Y-58079493D01*
X99371682Y-58079495D01*
X99438273Y-58146086D01*
X99471758Y-58207409D01*
X99466774Y-58277101D01*
X99424902Y-58333034D01*
X99359438Y-58357451D01*
X99350592Y-58357767D01*
X99285856Y-58357767D01*
X99158560Y-58391875D01*
X99044434Y-58457767D01*
X99044431Y-58457769D01*
X98951250Y-58550950D01*
X98951248Y-58550953D01*
X98885356Y-58665079D01*
X98856627Y-58772301D01*
X98851248Y-58792375D01*
X98851248Y-58924159D01*
X98875246Y-59013723D01*
X98887460Y-59059304D01*
X98884142Y-59060193D01*
X98889919Y-59113896D01*
X98858648Y-59176377D01*
X98798561Y-59212033D01*
X98767888Y-59215887D01*
X98645988Y-59215887D01*
X98518692Y-59249995D01*
X98404566Y-59315887D01*
X98404563Y-59315889D01*
X98311382Y-59409070D01*
X98311380Y-59409073D01*
X98245488Y-59523199D01*
X98211380Y-59650495D01*
X98211380Y-59782278D01*
X98230854Y-59854958D01*
X98229191Y-59924808D01*
X98190028Y-59982670D01*
X98143174Y-60006825D01*
X98043219Y-60033608D01*
X98043217Y-60033608D01*
X98043217Y-60033609D01*
X97929091Y-60099500D01*
X97929088Y-60099502D01*
X97865410Y-60163181D01*
X97804087Y-60196666D01*
X97777729Y-60199500D01*
X96675833Y-60199500D01*
X96608794Y-60179815D01*
X96588152Y-60163181D01*
X95570842Y-59145871D01*
X95537357Y-59084548D01*
X95534523Y-59058190D01*
X95534523Y-59013725D01*
X95534523Y-59013723D01*
X95500415Y-58886429D01*
X95434523Y-58772301D01*
X95341337Y-58679115D01*
X95278453Y-58642809D01*
X95227210Y-58613223D01*
X95163562Y-58596169D01*
X95099915Y-58579115D01*
X94968131Y-58579115D01*
X94840835Y-58613223D01*
X94789587Y-58642812D01*
X94726709Y-58679115D01*
X94726707Y-58679116D01*
X94720177Y-58682887D01*
X94658176Y-58699500D01*
X90302087Y-58699500D01*
X90225659Y-58719978D01*
X90157138Y-58759540D01*
X90157135Y-58759542D01*
X88283116Y-60633561D01*
X88221793Y-60667046D01*
X88152101Y-60662062D01*
X88096168Y-60620190D01*
X88071751Y-60554726D01*
X88075658Y-60513795D01*
X88089951Y-60460456D01*
X88089951Y-60315508D01*
X88052436Y-60175497D01*
X87979962Y-60049967D01*
X84989485Y-57059490D01*
X84863955Y-56987016D01*
X84786986Y-56966392D01*
X84786985Y-56966391D01*
X84740836Y-56954025D01*
X84723945Y-56949500D01*
X84723944Y-56949500D01*
X83773676Y-56949500D01*
X83706637Y-56929815D01*
X83670575Y-56894392D01*
X83644553Y-56855448D01*
X83578230Y-56811132D01*
X83578229Y-56811131D01*
X83519752Y-56799500D01*
X83519748Y-56799500D01*
X82624500Y-56799500D01*
X82557461Y-56779815D01*
X82511706Y-56727011D01*
X82500500Y-56675500D01*
X82500500Y-51624499D01*
X82520185Y-51557460D01*
X82572989Y-51511705D01*
X82624500Y-51500499D01*
X105375500Y-51500499D01*
X105442539Y-51520184D01*
G37*
G04 #@! TD.AperFunction*
G04 #@! TD*
M02*
